# xmcd
#
# Track frame offsets:
#	150
#	11877
#	23780
#	40190
#	51672
#	64902
#	76372
#	91297
#	105535
#	123100
#	130267
#	142275
#	159670
#	174707
#	187765
#	201927
#
# Disc length: 2875 seconds
# Revision: 0
# Processed by: cddbd v1.5.2PL0 Copyright (c) Steve Scherf et al.
# Submitted via: dBpowerAMP V12.0
#
DISCID=e20b3910
DTITLE=B.W. Stevenson - The Very Best Of
DYEAR=1999
DGENRE=
TTITLE0=My Maria
TTITLE1=Be My Woman Tonight
TTITLE2=Sunset Woman
TTITLE3=A Good Love Is Like a Good Song
TTITLE4=Grab on Hold of My Soul
TTITLE5=Shambala
TTITLE6=Lucky Touch
TTITLE7=I Got to Boogie
TTITLE8=Remember Me
TTITLE9=Pass This Way
TTITLE10=The River of Love
TTITLE11=My Feet Are So Weary
TTITLE12=August Evening Lady
TTITLE13=Song for Katy
TTITLE14=Look for the Light
TTITLE15=Roll On
EXTD=
EXTT0=
EXTT1=
EXTT2=
EXTT3=
EXTT4=
EXTT5=
EXTT6=
EXTT7=
EXTT8=
EXTT9=
EXTT10=
EXTT11=
EXTT12=
EXTT13=
EXTT14=
EXTT15=
PLAYORDER=
